<svg width="706" height="192" viewBox="0 0 706 192" fill="none" xmlns="http://www.w3.org/2000/svg">
<path d="M24.68 130.712C25.7893 131.907 26.344 133.315 26.344 134.936C26.344 136.728 25.576 138.221 24.04 139.416C22.504 140.611 20.4133 140.739 17.768 139.8H17.896C14.056 138.605 11.24 136.984 9.448 134.936C7.656 132.888 6.12 130.84 4.84 128.792L4.328 127.896V128.024C3.64533 127 3.09067 125.421 2.664 123.288C2.23733 121.069 1.85333 118.467 1.512 115.48C1.256 112.408 1.08533 108.995 1 105.24C0.829333 101.4 0.744 97.3467 0.744 93.08C0.744 86.8507 0.872 80.2373 1.128 73.24C1.384 66.2427 1.68267 59.3733 2.024 52.632C2.45067 45.8053 2.92 39.2773 3.432 33.048C3.944 26.8187 4.41333 21.3573 4.84 16.664C5.352 11.8853 5.82133 8.08799 6.248 5.272C6.67467 2.37066 7.016 0.877324 7.272 0.791992C7.61333 0.70666 8.296 0.70666 9.32 0.791992C10.4293 0.791992 11.7093 0.919993 13.16 1.17599C14.696 1.432 16.232 1.77333 17.768 2.2C19.3893 2.62666 20.8827 3.13866 22.248 3.73599C24.2107 3.48 26.4293 3.26666 28.904 3.09599C31.3787 2.92533 34.0667 2.84 36.968 2.84C42.1733 2.84 47.8053 3.13866 53.864 3.73599C60.008 4.33333 66.024 5.4 71.912 6.936C73.3627 7.36266 74.3867 7.87466 74.984 8.47199C75.5813 8.984 75.88 9.58133 75.88 10.264C75.88 11.032 75.368 11.7147 74.344 12.312C73.4053 12.9093 72.424 13.208 71.4 13.208C67.1333 12.7813 63.1227 12.4827 59.368 12.312C55.6133 12.1413 52.2853 12.056 49.384 12.056C43.8373 12.056 39.1867 12.2693 35.432 12.696C31.6773 13.1227 28.6053 13.6347 26.216 14.232C25.7893 18.1573 25.32 22.2533 24.808 26.52C24.3813 30.7867 23.912 35.1813 23.4 39.704L23.016 43.16C24.4667 43.3307 26.1307 43.5013 28.008 43.672C29.8853 43.7573 31.8907 43.8853 34.024 44.056C36.84 44.312 39.8267 44.568 42.984 44.824C46.1413 45.08 49.128 45.336 51.944 45.592C54.76 45.848 57.2347 46.0613 59.368 46.232C61.5867 46.3173 63.1653 46.36 64.104 46.36C66.0667 46.1893 67.6027 46.4453 68.712 47.128C69.9067 47.7253 70.504 48.4933 70.504 49.432C70.504 50.2 70.0347 50.9253 69.096 51.608C68.2427 52.2053 66.92 52.504 65.128 52.504C64.7867 52.504 63.6773 52.504 61.8 52.504C60.008 52.504 57.7893 52.5467 55.144 52.632C52.4987 52.632 49.5547 52.632 46.312 52.632C43.1547 52.632 40.04 52.6747 36.968 52.76C33.896 52.76 30.9947 52.8027 28.264 52.888C25.6187 52.9733 23.4853 53.0587 21.864 53.144C21.0107 61.1653 20.2427 69.1013 19.56 76.952C18.9627 84.7173 18.664 92.0133 18.664 98.84C18.664 105.923 19.0907 112.237 19.944 117.784C20.8827 123.245 22.4613 127.597 24.68 130.84V130.712ZM69.843 70.424C70.5257 69.9973 71.251 69.7413 72.019 69.656C72.787 69.4853 73.5123 69.4 74.195 69.4C74.451 68.2053 74.8777 66.712 75.475 64.92C76.1577 63.0427 77.2243 61.2933 78.675 59.672C80.1257 57.9653 82.131 56.5573 84.691 55.448C87.251 54.2533 90.579 53.656 94.675 53.656C98.8563 53.7413 102.312 54.6373 105.043 56.344C107.774 57.9653 109.907 60.0133 111.443 62.488C113.064 64.9627 114.131 67.6507 114.643 70.552C115.24 73.368 115.496 75.9707 115.411 78.36V79.768L115.155 84.248C118.056 83.0533 120.83 81.5173 123.475 79.64C126.206 77.6773 128.467 75.2027 130.259 72.216H130.131C130.558 71.5333 131.24 70.8933 132.179 70.296C133.118 69.6987 133.971 69.4 134.739 69.4C135.678 69.4 136.275 69.7413 136.531 70.424C136.872 71.0213 136.659 72.1733 135.891 73.88C134.696 76.44 133.246 78.744 131.539 80.792C129.918 82.7547 128.126 84.5467 126.163 86.168C124.286 87.704 122.323 89.0693 120.275 90.264C118.227 91.4587 116.179 92.44 114.131 93.208C113.534 96.1093 112.638 99.0533 111.443 102.04C110.248 105.027 108.627 107.715 106.579 110.104C104.531 112.493 101.928 114.456 98.771 115.992C95.6137 117.443 91.7737 118.125 87.251 118.04C82.4723 117.955 78.5043 117.187 75.347 115.736C72.275 114.285 69.8003 112.451 67.923 110.232C66.131 107.928 64.8937 105.325 64.211 102.424C63.443 99.5227 63.059 96.5787 63.059 93.592C63.059 90.8613 63.315 88.216 63.827 85.656C64.339 83.0107 64.9363 80.6213 65.619 78.488C66.3017 76.3547 67.027 74.6053 67.795 73.24C68.6483 71.7893 69.331 70.8507 69.843 70.424ZM99.795 87.192C101.075 87.3627 102.782 87.2347 104.915 86.808C105.171 85.1867 105.342 83.8213 105.427 82.712C105.598 81.5173 105.683 80.7493 105.683 80.408C105.768 77.6773 105.64 74.9893 105.299 72.344C105.043 69.6987 104.446 67.352 103.507 65.304C102.654 63.256 101.416 61.6773 99.795 60.568C98.259 59.3733 96.2537 58.8613 93.779 59.032C92.4137 59.1173 91.1337 59.672 89.939 60.696C88.7443 61.6347 87.7203 62.7867 86.867 64.152C86.099 65.432 85.5443 66.7973 85.203 68.248C84.8617 69.6987 84.819 70.9787 85.075 72.088L85.587 74.264C85.7577 75.4587 86.0137 76.824 86.355 78.36C86.7817 79.8107 87.4643 81.176 88.403 82.456C89.427 83.736 90.835 84.8453 92.627 85.784C94.419 86.6373 96.8083 87.1067 99.795 87.192ZM100.307 96.024C95.187 95.8533 91.0057 95.0853 87.763 93.72C84.5203 92.2693 81.9177 90.5627 79.955 88.6V90.776C79.955 92.9947 80.083 95.2133 80.339 97.432C80.6803 99.5653 81.235 101.528 82.003 103.32C82.8563 105.027 83.9657 106.435 85.331 107.544C86.6963 108.568 88.4457 109.123 90.579 109.208C92.115 109.208 93.523 108.867 94.803 108.184C96.083 107.416 97.1923 106.435 98.131 105.24C99.155 103.96 100.051 102.552 100.819 101.016C101.587 99.3947 102.27 97.7307 102.867 96.024C102.355 96.024 101.886 96.0667 101.459 96.152C101.118 96.152 100.734 96.1093 100.307 96.024ZM127.718 70.424C128.401 69.9973 129.126 69.7413 129.894 69.656C130.662 69.4853 131.387 69.4 132.07 69.4C132.326 68.2053 132.753 66.712 133.35 64.92C134.033 63.0427 135.099 61.2933 136.55 59.672C138.001 57.9653 140.006 56.5573 142.566 55.448C145.126 54.2533 148.454 53.656 152.55 53.656C156.731 53.7413 160.187 54.6373 162.918 56.344C165.649 57.9653 167.782 60.0133 169.318 62.488C170.939 64.9627 172.006 67.6507 172.518 70.552C173.115 73.368 173.371 75.9707 173.286 78.36V79.768L173.03 84.248C175.931 83.0533 178.705 81.5173 181.35 79.64C184.081 77.6773 186.342 75.2027 188.134 72.216H188.006C188.433 71.5333 189.115 70.8933 190.054 70.296C190.993 69.6987 191.846 69.4 192.614 69.4C193.553 69.4 194.15 69.7413 194.406 70.424C194.747 71.0213 194.534 72.1733 193.766 73.88C192.571 76.44 191.121 78.744 189.414 80.792C187.793 82.7547 186.001 84.5467 184.038 86.168C182.161 87.704 180.198 89.0693 178.15 90.264C176.102 91.4587 174.054 92.44 172.006 93.208C171.409 96.1093 170.513 99.0533 169.318 102.04C168.123 105.027 166.502 107.715 164.454 110.104C162.406 112.493 159.803 114.456 156.646 115.992C153.489 117.443 149.649 118.125 145.126 118.04C140.347 117.955 136.379 117.187 133.222 115.736C130.15 114.285 127.675 112.451 125.798 110.232C124.006 107.928 122.769 105.325 122.086 102.424C121.318 99.5227 120.934 96.5787 120.934 93.592C120.934 90.8613 121.19 88.216 121.702 85.656C122.214 83.0107 122.811 80.6213 123.494 78.488C124.177 76.3547 124.902 74.6053 125.67 73.24C126.523 71.7893 127.206 70.8507 127.718 70.424ZM157.67 87.192C158.95 87.3627 160.657 87.2347 162.79 86.808C163.046 85.1867 163.217 83.8213 163.302 82.712C163.473 81.5173 163.558 80.7493 163.558 80.408C163.643 77.6773 163.515 74.9893 163.174 72.344C162.918 69.6987 162.321 67.352 161.382 65.304C160.529 63.256 159.291 61.6773 157.67 60.568C156.134 59.3733 154.129 58.8613 151.654 59.032C150.289 59.1173 149.009 59.672 147.814 60.696C146.619 61.6347 145.595 62.7867 144.742 64.152C143.974 65.432 143.419 66.7973 143.078 68.248C142.737 69.6987 142.694 70.9787 142.95 72.088L143.462 74.264C143.633 75.4587 143.889 76.824 144.23 78.36C144.657 79.8107 145.339 81.176 146.278 82.456C147.302 83.736 148.71 84.8453 150.502 85.784C152.294 86.6373 154.683 87.1067 157.67 87.192ZM158.182 96.024C153.062 95.8533 148.881 95.0853 145.638 93.72C142.395 92.2693 139.793 90.5627 137.83 88.6V90.776C137.83 92.9947 137.958 95.2133 138.214 97.432C138.555 99.5653 139.11 101.528 139.878 103.32C140.731 105.027 141.841 106.435 143.206 107.544C144.571 108.568 146.321 109.123 148.454 109.208C149.99 109.208 151.398 108.867 152.678 108.184C153.958 107.416 155.067 106.435 156.006 105.24C157.03 103.96 157.926 102.552 158.694 101.016C159.462 99.3947 160.145 97.7307 160.742 96.024C160.23 96.024 159.761 96.0667 159.334 96.152C158.993 96.152 158.609 96.1093 158.182 96.024ZM208.761 57.752C211.236 57.752 213.284 58.2213 214.905 59.16C216.612 60.0133 218.062 61.1227 219.257 62.488C219.598 58.0507 219.982 53.784 220.409 49.688C220.836 45.592 221.22 41.7947 221.561 38.296C221.988 34.7973 222.372 31.7253 222.713 29.08C223.14 26.4347 223.438 24.3867 223.609 22.936C223.78 22.3387 223.865 21.8693 223.865 21.528C223.865 21.1013 223.865 20.9307 223.865 21.016C223.865 20.5893 224.078 20.12 224.505 19.608C224.932 19.096 225.486 18.6267 226.169 18.2C226.852 17.688 227.62 17.304 228.473 17.048C229.326 16.7067 230.18 16.536 231.033 16.536C232.228 16.536 233.294 16.8773 234.233 17.56C235.172 18.1573 235.812 19.2667 236.153 20.888C236.409 22.8507 236.537 25.752 236.537 29.592C236.537 33.688 236.409 38.4667 236.153 43.928C235.897 49.304 235.556 55.0213 235.129 61.08C234.702 67.992 234.318 74.904 233.977 81.816C233.636 88.6427 233.465 94.872 233.465 100.504C233.465 106.307 233.636 111 233.977 114.584C234.404 118.168 235.172 119.875 236.281 119.704C237.39 119.533 238.628 118.04 239.993 115.224C241.358 112.408 242.681 109.08 243.961 105.24C245.326 101.315 246.564 97.3467 247.673 93.336C248.868 89.24 249.849 85.8267 250.617 83.096L252.025 78.104C252.281 77.5067 252.878 77.1227 253.817 76.952C254.756 76.7813 255.694 76.7813 256.633 76.952C257.657 77.1227 258.51 77.4213 259.193 77.848C259.876 78.2747 260.089 78.744 259.833 79.256C259.833 79.3413 259.748 79.7253 259.577 80.408C259.492 81.0907 259.364 81.8587 259.193 82.712C258.766 84.8453 258.212 87.4907 257.529 90.648C256.846 93.8053 255.993 97.1333 254.969 100.632C253.945 104.045 252.708 107.501 251.257 111C249.806 114.413 248.142 117.485 246.265 120.216C244.473 122.861 242.382 124.995 239.993 126.616C237.689 128.237 235.086 128.963 232.185 128.792C228.686 128.621 225.956 126.701 223.993 123.032C222.03 119.277 220.58 114.456 219.641 108.568C218.958 110.189 218.148 111.811 217.209 113.432C216.356 115.053 215.332 116.547 214.137 117.912C212.942 119.192 211.577 120.301 210.041 121.24C208.59 122.093 206.926 122.605 205.049 122.776C199.929 123.203 195.705 122.563 192.377 120.856C189.049 119.064 186.404 116.717 184.441 113.816C182.564 110.915 181.241 107.757 180.473 104.344C179.705 100.931 179.321 97.7307 179.321 94.744C179.321 93.72 179.364 92.7387 179.449 91.8C179.449 90.8613 179.534 90.0507 179.705 89.368C179.705 89.1973 179.748 89.0267 179.833 88.856C179.833 88.6853 179.833 88.5147 179.833 88.344C180.004 87.1493 180.302 85.5707 180.729 83.608C181.07 81.56 181.625 79.4267 182.393 77.208C183.161 74.904 184.185 72.6 185.465 70.296C186.83 67.992 188.537 65.9013 190.585 64.024C192.718 62.1467 195.236 60.6533 198.137 59.544C201.124 58.3493 204.665 57.752 208.761 57.752ZM218.233 87.32C218.233 84.5893 218.276 81.816 218.361 79C218.446 76.184 218.574 73.368 218.745 70.552C218.148 69.1013 217.124 67.6933 215.673 66.328C214.222 64.9627 212.345 64.3227 210.041 64.408C208.676 64.4933 207.182 65.176 205.561 66.456C203.94 67.736 202.404 69.4853 200.953 71.704C199.588 73.8373 198.436 76.3973 197.497 79.384C196.558 82.2853 196.174 85.4 196.345 88.728C196.43 94.7867 196.814 99.6507 197.497 103.32C198.18 106.989 198.948 109.848 199.801 111.896C200.654 113.859 201.508 115.181 202.361 115.864C203.214 116.547 203.897 116.931 204.409 117.016C205.774 117.272 207.14 116.845 208.505 115.736C209.956 114.541 211.278 112.963 212.473 111C213.753 109.037 214.905 106.861 215.929 104.472C216.953 102.083 217.806 99.7787 218.489 97.56C218.318 95.9387 218.233 94.2747 218.233 92.568C218.233 90.8613 218.233 89.112 218.233 87.32ZM259.97 38.424C261.335 38.0827 262.445 37.9973 263.298 38.168C264.151 38.2533 264.834 38.5093 265.346 38.936C265.858 39.2773 266.199 39.7893 266.37 40.472C266.626 41.0693 266.754 41.7093 266.754 42.392C266.754 44.5253 266.157 46.1893 264.962 47.384C264.535 47.8107 263.938 48.536 263.17 49.56C262.487 50.4987 261.762 51.736 260.994 53.272C260.311 54.808 259.671 56.6853 259.074 58.904C258.562 61.0373 258.306 63.512 258.306 66.328C258.306 69.7413 258.861 73.6667 259.97 78.104V77.976L268.29 99.608C271.703 96.536 275.287 93.08 279.042 89.24C282.797 85.3147 285.954 81.304 288.514 77.208C289.197 76.0987 289.922 75.3733 290.69 75.032C291.543 74.6053 292.269 74.52 292.866 74.776C293.549 74.9467 294.018 75.4587 294.274 76.312C294.53 77.1653 294.487 78.2747 294.146 79.64C293.122 81.944 291.799 84.2053 290.178 86.424C288.642 88.6427 286.935 90.8187 285.058 92.952C283.266 95.0853 281.346 97.1333 279.298 99.096C277.25 100.973 275.245 102.808 273.282 104.6L270.978 106.648C272.173 109.976 273.239 112.963 274.178 115.608C275.202 118.253 275.799 120.045 275.97 120.984C276.397 123.373 276.61 125.379 276.61 127C276.61 129.475 276.226 131.523 275.458 133.144C274.775 134.851 273.794 136.216 272.514 137.24C271.234 138.264 269.783 138.989 268.162 139.416C266.541 139.843 264.834 140.056 263.042 140.056C257.154 140.227 252.93 139.245 250.37 137.112C247.81 135.064 246.53 132.205 246.53 128.536C246.53 127.853 246.573 127.085 246.658 126.232C246.743 125.379 246.914 124.568 247.17 123.8C247.853 121.069 249.175 118.424 251.138 115.864C253.101 113.304 255.447 110.787 258.178 108.312C257.154 105.581 256.045 102.851 254.85 100.12C253.741 97.3893 252.631 94.8293 251.522 92.44C250.413 90.0507 249.389 87.9173 248.45 86.04C247.597 84.0773 246.871 82.4987 246.274 81.304C245.933 80.6213 245.634 80.024 245.378 79.512C245.122 78.9147 245.079 78.7013 245.25 78.872C244.567 76.6533 244.098 74.52 243.842 72.472C243.586 70.3387 243.458 68.2907 243.458 66.328C243.458 61.5493 244.183 57.4533 245.634 54.04C247.17 50.6267 248.877 47.8107 250.754 45.592C252.717 43.288 254.551 41.5813 256.258 40.472C258.05 39.3627 259.202 38.7227 259.714 38.552L259.97 38.424ZM263.17 128.92C263.17 125.592 262.445 121.539 260.994 116.76C260.055 118.04 259.202 119.32 258.434 120.6C257.751 121.88 257.282 123.203 257.026 124.568C256.685 125.763 256.429 126.829 256.258 127.768C256.173 128.792 256.13 129.645 256.13 130.328C256.13 132.888 256.642 134.424 257.666 134.936C258.69 135.533 259.586 135.704 260.354 135.448C262.231 134.765 263.17 132.589 263.17 128.92ZM255.512 24.344C257.133 24.7707 259.224 25.0693 261.784 25.24C264.259 25.3253 267.117 25.368 270.36 25.368C275.651 25.368 281.496 25.24 287.896 24.984L289.944 9.24C290.029 8.64266 290.115 8.17333 290.2 7.83199C290.285 7.40533 290.328 7.23466 290.328 7.31999C290.328 6.89333 290.541 6.42399 290.968 5.91199C291.395 5.4 291.907 4.93066 292.504 4.504C293.187 3.99199 293.955 3.60799 294.808 3.352C295.661 3.01066 296.515 2.84 297.368 2.84C298.563 2.84 299.629 3.13866 300.568 3.73599C301.507 4.33333 302.147 5.48533 302.488 7.19199C302.744 8.984 302.872 11.7573 302.872 15.512C302.872 16.792 302.872 18.1573 302.872 19.608C302.872 21.0587 302.829 22.5947 302.744 24.216C305.133 24.0453 307.48 23.9173 309.784 23.832C312.088 23.6613 314.392 23.4907 316.696 23.32C320.109 23.064 323.48 22.8507 326.808 22.68C330.221 22.424 333.464 22.2107 336.536 22.04C339.608 21.784 342.467 21.6133 345.112 21.528C347.843 21.4427 350.232 21.4 352.28 21.4C356.12 21.4 358.893 21.656 360.6 22.168C361.624 22.5947 362.307 23.192 362.648 23.96C363.075 24.6427 363.16 25.3253 362.904 26.008C362.733 26.6907 362.221 27.288 361.368 27.8C360.515 28.2267 359.363 28.312 357.912 28.056C356.632 27.8853 355.181 27.7573 353.56 27.672C351.939 27.5013 350.232 27.416 348.44 27.416C343.32 27.416 337.304 27.7147 330.392 28.312C323.48 28.824 316.269 29.3787 308.76 29.976L302.36 30.616L301.464 50.328C301.037 57.9227 300.611 65.6027 300.184 73.368C299.757 81.048 299.544 88.088 299.544 94.488C299.544 97.7307 299.587 100.717 299.672 103.448C299.757 106.179 299.928 108.525 300.184 110.488C300.44 112.365 300.739 113.859 301.08 114.968C301.507 115.992 301.976 116.461 302.488 116.376C303.683 116.205 304.963 114.797 306.328 112.152C307.779 109.421 309.187 106.264 310.552 102.68C312.003 99.096 313.325 95.4267 314.52 91.672C315.715 87.832 316.696 84.7173 317.464 82.328C317.635 81.7307 317.805 81.1333 317.976 80.536C318.232 79.8533 318.445 79.2133 318.616 78.616C318.872 78.0187 319.469 77.6347 320.408 77.464C321.347 77.2933 322.328 77.2933 323.352 77.464C324.376 77.6347 325.229 77.9333 325.912 78.36C326.595 78.7867 326.808 79.256 326.552 79.768C326.211 80.28 325.912 81.2187 325.656 82.584C325.315 84.2053 324.803 86.3387 324.12 88.984C323.523 91.544 322.712 94.2747 321.688 97.176C320.749 100.077 319.597 103.021 318.232 106.008C316.867 108.909 315.245 111.555 313.368 113.944C311.576 116.248 309.485 118.125 307.096 119.576C304.707 121.027 302.061 121.709 299.16 121.624C296.259 121.539 293.827 120.301 291.864 117.912C289.987 115.523 288.451 112.365 287.256 108.44C286.147 104.429 285.379 99.7787 284.952 94.488C284.44 89.1973 284.184 83.6507 284.184 77.848C284.184 70.0827 284.525 62.1467 285.208 54.04C285.805 45.9333 286.445 38.5093 287.128 31.768C279.789 32.28 273.133 32.536 267.16 32.536C264.429 32.536 261.955 32.4933 259.736 32.408C257.517 32.3227 255.597 32.0667 253.976 31.64H254.232C252.013 31.2133 250.307 30.5307 249.112 29.592C247.917 28.568 247.32 27.5867 247.32 26.648C247.32 25.624 248.003 24.856 249.368 24.344C250.648 23.832 252.696 23.832 255.512 24.344ZM351.638 73.368C351.638 73.0267 351.681 72.8133 351.766 72.728C351.851 72.3013 352.15 71.832 352.662 71.32C353.259 70.7227 353.942 70.2107 354.71 69.784C355.563 69.272 356.502 68.888 357.526 68.632C358.55 68.2907 359.574 68.12 360.598 68.12C361.963 68.12 363.158 68.4613 364.182 69.144C365.291 69.7413 365.974 70.8507 366.23 72.472C366.571 74.1787 366.742 76.4827 366.742 79.384C366.742 82.456 366.571 85.8267 366.23 89.496C365.974 93.08 365.633 96.7493 365.206 100.504C364.865 104.088 364.523 107.544 364.182 110.872C363.926 114.115 363.798 117.059 363.798 119.704C363.798 122.435 364.011 124.696 364.438 126.488C364.865 128.195 365.59 128.963 366.614 128.792C367.382 128.707 368.278 127.811 369.302 126.104C370.411 124.312 371.563 122.093 372.758 119.448C373.953 116.717 375.147 113.688 376.342 110.36C377.622 107.032 378.817 103.704 379.926 100.376C381.121 97.048 382.187 93.8907 383.126 90.904C384.15 87.9173 385.003 85.4427 385.686 83.48L386.966 79.256C387.222 78.6587 387.819 78.2747 388.758 78.104C389.697 77.9333 390.678 77.9333 391.702 78.104C392.726 78.2747 393.579 78.5733 394.262 79C394.945 79.4267 395.158 79.896 394.902 80.408V80.152L393.878 83.736C393.366 86.04 392.641 88.9413 391.702 92.44C390.763 95.8533 389.611 99.5227 388.246 103.448C386.881 107.288 385.345 111.171 383.638 115.096C381.931 119.021 380.011 122.563 377.878 125.72C375.745 128.792 373.398 131.267 370.838 133.144C368.363 135.107 365.718 136.045 362.902 135.96C361.025 135.704 359.361 134.979 357.91 133.784C356.545 132.589 355.35 131.096 354.326 129.304C353.302 127.512 352.406 125.464 351.638 123.16C350.955 120.771 350.443 118.253 350.102 115.608C348.907 117.827 347.286 119.875 345.238 121.752C343.19 123.544 340.63 124.653 337.558 125.08C331.67 125.421 327.019 124.525 323.606 122.392C320.278 120.259 317.761 117.613 316.054 114.456C314.433 111.299 313.409 107.971 312.982 104.472C312.555 100.888 312.299 97.816 312.214 95.256C312.214 93.5493 312.342 91.3733 312.598 88.728C312.769 85.9973 313.238 83.096 314.006 80.024C314.774 76.952 315.798 73.88 317.078 70.808C318.443 67.6507 320.193 64.792 322.326 62.232C324.545 59.672 327.233 57.5813 330.39 55.96C333.547 54.2533 337.259 53.3147 341.526 53.144C344.939 53.0587 347.713 53.3573 349.846 54.04C352.065 54.7227 353.814 55.576 355.094 56.6C356.374 57.624 357.313 58.6907 357.91 59.8C358.507 60.9093 358.934 61.8907 359.19 62.744L359.574 64.024V63.896C360.257 65.3467 360.129 66.456 359.19 67.224C358.337 67.992 357.185 68.376 355.734 68.376C354.881 68.376 353.985 68.2053 353.046 67.864C352.107 67.4373 351.297 66.84 350.614 66.072C350.187 65.7307 349.974 65.4747 349.974 65.304C349.974 65.1333 349.889 64.92 349.718 64.664C349.291 63.7253 348.566 62.6587 347.542 61.464C346.603 60.2693 345.025 59.7147 342.806 59.8C341.526 59.8853 340.118 60.7387 338.582 62.36C337.131 63.9813 335.723 66.2853 334.358 69.272C333.078 72.2587 331.926 75.8853 330.902 80.152C329.878 84.3333 329.195 89.112 328.854 94.488C328.854 95 328.811 95.6827 328.726 96.536C328.726 97.3893 328.726 98.0293 328.726 98.456C328.726 103.491 329.11 107.331 329.878 109.976C330.646 112.536 331.542 114.413 332.566 115.608C333.59 116.717 334.614 117.315 335.638 117.4C336.662 117.485 337.43 117.528 337.942 117.528C338.966 117.528 340.033 117.016 341.142 115.992C342.251 114.968 343.275 113.731 344.214 112.28C345.238 110.744 346.177 109.123 347.03 107.416C347.883 105.624 348.651 104.003 349.334 102.552C349.334 99.3093 349.419 96.152 349.59 93.08C349.761 89.9227 349.974 87.0213 350.23 84.376C350.486 81.7307 350.742 79.4693 350.998 77.592C351.254 75.6293 351.467 74.2213 351.638 73.368ZM412.205 53.144C415.618 53.0587 418.392 53.3573 420.525 54.04C422.744 54.7227 424.493 55.576 425.773 56.6C427.053 57.624 427.992 58.6907 428.589 59.8C429.186 60.9093 429.656 61.8907 429.997 62.744L430.381 64.024V63.896C430.893 65.0907 430.893 66.072 430.381 66.84C429.869 67.608 429.058 68.0773 427.949 68.248H429.229C430.936 68.248 432.472 68.4187 433.837 68.76C435.288 69.1013 436.397 69.5707 437.165 70.168C437.848 70.7653 438.189 72.088 438.189 74.136C438.189 75.7573 438.018 77.8053 437.677 80.28C437.421 82.7547 436.994 85.5707 436.397 88.728C435.885 91.8853 435.245 95.3413 434.477 99.096C433.794 102.765 433.026 106.605 432.173 110.616C437.72 104.472 442.712 98.584 447.149 92.952C451.586 87.2347 454.957 81.9867 457.261 77.208C457.517 76.7813 458.072 76.568 458.925 76.568C459.778 76.4827 460.632 76.6107 461.485 76.952C462.424 77.2933 463.192 77.8053 463.789 78.488C464.472 79.0853 464.642 79.8107 464.301 80.664C462.765 84.4187 460.717 88.2587 458.157 92.184C455.597 96.1093 452.696 100.12 449.453 104.216C446.21 108.227 442.712 112.28 438.957 116.376C435.288 120.387 431.618 124.355 427.949 128.28C426.413 133.997 424.834 139.629 423.213 145.176C421.592 150.723 419.97 155.843 418.349 160.536C416.728 165.229 415.149 169.368 413.613 172.952C412.077 176.536 410.626 179.224 409.261 181.016C406.53 184.259 403.501 186.776 400.173 188.568C396.93 190.36 393.901 191.256 391.085 191.256C387.757 191.256 384.941 190.189 382.637 188.056C380.333 185.923 379.181 182.851 379.181 178.84C379.181 176.365 379.608 173.72 380.461 170.904C381.229 168.685 382.637 166.083 384.685 163.096C386.818 160.109 389.421 156.824 392.493 153.24C395.565 149.656 398.978 145.859 402.733 141.848C406.488 137.923 410.37 133.827 414.381 129.56C414.808 126.829 415.192 124.141 415.533 121.496C415.96 118.765 416.344 116.035 416.685 113.304C414.722 114.669 412.504 115.48 410.029 115.736C406.104 115.992 402.733 115.651 399.917 114.712C397.101 113.688 394.712 112.323 392.749 110.616C390.872 108.909 389.336 106.947 388.141 104.728C387.032 102.509 386.178 100.248 385.581 97.944C384.984 95.5547 384.557 93.2507 384.301 91.032C384.045 88.8133 383.917 86.8507 383.917 85.144C383.832 82.584 384.045 79.5547 384.557 76.056C385.069 72.472 386.306 69.016 388.269 65.688C390.232 62.36 393.09 59.5013 396.845 57.112C400.685 54.7227 405.805 53.4 412.205 53.144ZM420.269 74.392C420.098 72.5147 420.653 71.1067 421.933 70.168C423.213 69.2293 424.792 68.632 426.669 68.376H426.541C425.688 68.376 424.792 68.2053 423.853 67.864C422.914 67.4373 422.061 66.84 421.293 66.072C420.952 65.7307 420.738 65.4747 420.653 65.304C420.653 65.1333 420.568 64.92 420.397 64.664C419.97 63.7253 419.288 62.6587 418.349 61.464C417.41 60.2693 415.832 59.7147 413.613 59.8C412.248 59.8853 410.84 60.2267 409.389 60.824C408.024 61.4213 406.701 62.616 405.421 64.408C404.226 66.2 403.16 68.6747 402.221 71.832C401.368 74.9893 400.813 79.1707 400.557 84.376C400.557 84.8027 400.514 85.4427 400.429 86.296C400.344 87.064 400.301 87.6613 400.301 88.088C400.301 93.1227 400.728 97.048 401.581 99.864C402.434 102.595 403.416 104.6 404.525 105.88C405.634 107.16 406.744 107.885 407.853 108.056C408.962 108.227 409.773 108.312 410.285 108.312C411.736 108.227 413.101 107.288 414.381 105.496C415.746 103.619 417.026 101.528 418.221 99.224C418.562 95.7253 418.861 92.4827 419.117 89.496C419.373 86.5093 419.586 83.9493 419.757 81.816C419.928 79.5973 420.056 77.848 420.141 76.568C420.226 75.288 420.269 74.5627 420.269 74.392ZM397.613 179.096C400.514 176.707 403.074 172.483 405.293 166.424C407.512 160.451 409.474 153.581 411.181 145.816C408.28 148.973 405.592 152.045 403.117 155.032C400.728 158.019 398.637 160.835 396.845 163.48C395.053 166.211 393.688 168.771 392.749 171.16C391.81 173.549 391.384 175.683 391.469 177.56C391.554 178.243 391.682 179.053 391.853 179.992C392.024 180.931 392.493 181.4 393.261 181.4C393.688 181.4 394.242 181.229 394.925 180.888C395.608 180.632 396.504 180.035 397.613 179.096ZM495.716 59.416C497.167 58.8187 498.575 58.6053 499.94 58.776C501.305 58.9467 502.5 59.3307 503.524 59.928C504.548 60.44 505.359 61.1227 505.956 61.976C506.639 62.744 506.98 63.4693 506.98 64.152C506.98 64.4933 506.852 65.048 506.596 65.816C506.425 66.4987 506.212 67.3093 505.956 68.248C505.444 69.784 504.889 71.6187 504.292 73.752C503.78 75.8853 503.311 78.0613 502.884 80.28C502.457 82.4133 502.116 84.504 501.86 86.552C501.689 88.5147 501.732 90.136 501.988 91.416L503.012 95.128C503.183 95.896 503.353 96.664 503.524 97.432C503.78 98.1147 503.908 98.6693 503.908 99.096C503.908 100.461 503.311 101.315 502.116 101.656C501.007 101.912 498.959 101.528 495.972 100.504C493.497 99.6507 491.62 97.6453 490.34 94.488C489.145 91.2453 488.548 87.6613 488.548 83.736C488.548 82.5413 488.591 81.432 488.676 80.408C488.761 79.2987 488.889 78.1893 489.06 77.08C486.756 79.5547 484.665 82.328 482.788 85.4C480.996 88.472 479.375 91.6293 477.924 94.872C476.559 98.0293 475.321 101.187 474.212 104.344C473.188 107.416 472.335 110.232 471.652 112.792V113.304C471.652 115.523 471.567 117.443 471.396 119.064C471.225 120.6 470.969 121.667 470.628 122.264C469.945 123.8 468.964 124.952 467.684 125.72C466.404 126.488 464.996 126.872 463.46 126.872C461.924 126.872 460.516 126.445 459.236 125.592C457.956 124.739 456.975 123.373 456.292 121.496C455.951 120.557 455.652 119.021 455.396 116.888C455.14 114.755 454.884 112.28 454.628 109.464C454.457 106.563 454.329 103.448 454.244 100.12C454.159 96.792 454.116 93.4213 454.116 90.008C454.116 86.8507 454.159 83.7787 454.244 80.792C454.329 77.8053 454.457 75.1173 454.628 72.728C454.799 70.2533 455.012 68.1627 455.268 66.456C455.524 64.664 455.865 63.4267 456.292 62.744C457.06 61.2933 458.127 60.2267 459.492 59.544C460.857 58.776 462.18 58.392 463.46 58.392C464.996 58.392 466.361 59.032 467.556 60.312C468.836 61.5067 469.348 63.256 469.092 65.56C469.092 66.2427 469.092 67.1813 469.092 68.376C469.177 69.5707 469.263 70.936 469.348 72.472C469.433 73.9227 469.519 75.5013 469.604 77.208C469.689 78.8293 469.817 80.4507 469.988 82.072L470.884 94.872C471.908 91.3733 473.188 87.832 474.724 84.248C476.26 80.664 478.009 77.2933 479.972 74.136C482.02 70.8933 484.324 67.992 486.884 65.432C489.529 62.872 492.473 60.8667 495.716 59.416ZM550.138 73.368C550.138 73.0267 550.181 72.8133 550.266 72.728C550.351 72.3013 550.65 71.832 551.162 71.32C551.759 70.7227 552.442 70.2107 553.21 69.784C554.063 69.272 555.002 68.888 556.026 68.632C557.05 68.2907 558.074 68.12 559.098 68.12C560.463 68.12 561.658 68.4613 562.682 69.144C563.791 69.7413 564.474 70.8507 564.73 72.472C565.071 74.1787 565.242 76.4827 565.242 79.384C565.242 82.456 565.071 85.8267 564.73 89.496C564.474 93.08 564.133 96.7493 563.706 100.504C563.365 104.088 563.023 107.544 562.682 110.872C562.426 114.115 562.298 117.059 562.298 119.704C562.298 122.435 562.511 124.696 562.938 126.488C563.365 128.195 564.09 128.963 565.114 128.792C565.882 128.707 566.778 127.811 567.802 126.104C568.911 124.312 570.063 122.093 571.258 119.448C572.453 116.717 573.647 113.688 574.842 110.36C576.122 107.032 577.317 103.704 578.426 100.376C579.621 97.048 580.687 93.8907 581.626 90.904C582.65 87.9173 583.503 85.4427 584.186 83.48L585.466 79.256C585.722 78.6587 586.319 78.2747 587.258 78.104C588.197 77.9333 589.178 77.9333 590.202 78.104C591.226 78.2747 592.079 78.5733 592.762 79C593.445 79.4267 593.658 79.896 593.402 80.408V80.152L592.378 83.736C591.866 86.04 591.141 88.9413 590.202 92.44C589.263 95.8533 588.111 99.5227 586.746 103.448C585.381 107.288 583.845 111.171 582.138 115.096C580.431 119.021 578.511 122.563 576.378 125.72C574.245 128.792 571.898 131.267 569.338 133.144C566.863 135.107 564.218 136.045 561.402 135.96C559.525 135.704 557.861 134.979 556.41 133.784C555.045 132.589 553.85 131.096 552.826 129.304C551.802 127.512 550.906 125.464 550.138 123.16C549.455 120.771 548.943 118.253 548.602 115.608C547.407 117.827 545.786 119.875 543.738 121.752C541.69 123.544 539.13 124.653 536.058 125.08C530.17 125.421 525.519 124.525 522.106 122.392C518.778 120.259 516.261 117.613 514.554 114.456C512.933 111.299 511.909 107.971 511.482 104.472C511.055 100.888 510.799 97.816 510.714 95.256C510.714 93.5493 510.842 91.3733 511.098 88.728C511.269 85.9973 511.738 83.096 512.506 80.024C513.274 76.952 514.298 73.88 515.578 70.808C516.943 67.6507 518.693 64.792 520.826 62.232C523.045 59.672 525.733 57.5813 528.89 55.96C532.047 54.2533 535.759 53.3147 540.026 53.144C543.439 53.0587 546.213 53.3573 548.346 54.04C550.565 54.7227 552.314 55.576 553.594 56.6C554.874 57.624 555.813 58.6907 556.41 59.8C557.007 60.9093 557.434 61.8907 557.69 62.744L558.074 64.024V63.896C558.757 65.3467 558.629 66.456 557.69 67.224C556.837 67.992 555.685 68.376 554.234 68.376C553.381 68.376 552.485 68.2053 551.546 67.864C550.607 67.4373 549.797 66.84 549.114 66.072C548.687 65.7307 548.474 65.4747 548.474 65.304C548.474 65.1333 548.389 64.92 548.218 64.664C547.791 63.7253 547.066 62.6587 546.042 61.464C545.103 60.2693 543.525 59.7147 541.306 59.8C540.026 59.8853 538.618 60.7387 537.082 62.36C535.631 63.9813 534.223 66.2853 532.858 69.272C531.578 72.2587 530.426 75.8853 529.402 80.152C528.378 84.3333 527.695 89.112 527.354 94.488C527.354 95 527.311 95.6827 527.226 96.536C527.226 97.3893 527.226 98.0293 527.226 98.456C527.226 103.491 527.61 107.331 528.378 109.976C529.146 112.536 530.042 114.413 531.066 115.608C532.09 116.717 533.114 117.315 534.138 117.4C535.162 117.485 535.93 117.528 536.442 117.528C537.466 117.528 538.533 117.016 539.642 115.992C540.751 114.968 541.775 113.731 542.714 112.28C543.738 110.744 544.677 109.123 545.53 107.416C546.383 105.624 547.151 104.003 547.834 102.552C547.834 99.3093 547.919 96.152 548.09 93.08C548.261 89.9227 548.474 87.0213 548.73 84.376C548.986 81.7307 549.242 79.4693 549.498 77.592C549.754 75.6293 549.967 74.2213 550.138 73.368ZM635.537 115.736C636.22 116.504 636.561 117.229 636.561 117.912C636.561 118.509 636.262 119.064 635.665 119.576C635.153 120.003 634.428 120.344 633.489 120.6C632.55 120.771 631.526 120.856 630.417 120.856C628.71 120.856 626.961 120.515 625.169 119.832C623.377 119.064 621.884 117.784 620.689 115.992C619.75 112.92 619.153 109.805 618.897 106.648C618.641 103.405 618.428 100.291 618.257 97.304C618.172 95.1707 618.044 93.208 617.873 91.416C617.788 89.5387 617.574 87.9173 617.233 86.552C616.892 85.1867 616.38 84.1627 615.697 83.48C615.1 82.712 614.246 82.3707 613.137 82.456C612.369 82.5413 611.174 83.608 609.553 85.656C607.932 87.6187 606.182 90.136 604.305 93.208C602.513 96.1947 600.764 99.48 599.057 103.064C597.35 106.648 596.028 110.019 595.089 113.176C595.089 116.589 595.26 118.637 595.601 119.32C596.54 121.539 596.326 123.544 594.961 125.336C593.596 127.043 591.548 127.896 588.817 127.896C587.878 127.896 586.982 127.811 586.129 127.64C585.276 127.469 584.38 127.171 583.441 126.744C582.673 126.403 581.99 125.592 581.393 124.312C580.881 122.947 580.454 121.283 580.113 119.32C579.772 117.272 579.516 115.011 579.345 112.536C579.174 109.976 579.089 107.288 579.089 104.472C579.089 100.717 579.217 96.8773 579.473 92.952C579.729 88.9413 580.07 85.1867 580.497 81.688C580.924 78.1893 581.393 75.0747 581.905 72.344C582.417 69.6133 582.886 67.608 583.313 66.328C582.63 66.072 582.332 65.7733 582.417 65.432C582.588 65.0053 583.014 64.6213 583.697 64.28C584.38 63.8533 585.318 63.512 586.513 63.256C587.708 63 589.073 62.872 590.609 62.872C592.401 62.872 593.98 63.1707 595.345 63.768C596.71 64.28 597.308 65.304 597.137 66.84C597.137 67.096 597.094 67.608 597.009 68.376C596.924 69.0587 596.838 69.912 596.753 70.936C596.582 73.6667 596.369 77.1653 596.113 81.432C595.857 85.6133 595.644 89.9653 595.473 94.488C596.412 92.0987 597.478 89.7093 598.673 87.32C599.953 84.8453 601.361 82.6267 602.897 80.664C604.433 78.616 606.097 76.952 607.889 75.672C609.681 74.392 611.601 73.624 613.649 73.368C617.404 73.368 620.433 73.9227 622.737 75.032C625.126 76.1413 626.961 77.592 628.241 79.384C629.606 81.176 630.588 83.2667 631.185 85.656C631.782 87.96 632.166 90.4347 632.337 93.08C633.873 88.8133 635.75 84.376 637.969 79.768C640.188 75.16 642.577 70.936 645.137 67.096C647.697 63.256 650.385 60.0987 653.201 57.624C656.017 55.064 658.79 53.784 661.521 53.784C664.337 53.784 666.641 54.3387 668.433 55.448C670.225 56.472 671.633 57.9653 672.657 59.928C673.766 61.8053 674.534 64.0667 674.961 66.712C675.388 69.3573 675.601 72.216 675.601 75.288C675.601 79.2133 675.345 83.3093 674.833 87.576C674.406 91.8427 673.937 96.024 673.425 100.12C672.913 103.789 672.444 107.288 672.017 110.616C671.676 113.944 671.505 116.888 671.505 119.448C671.505 122.179 671.718 124.355 672.145 125.976C672.657 127.512 673.638 128.365 675.089 128.536C675.942 128.536 676.881 127.853 677.905 126.488C679.014 125.037 680.081 123.117 681.105 120.728C682.214 118.339 683.324 115.608 684.433 112.536C685.628 109.464 686.737 106.349 687.761 103.192C688.87 99.9493 689.894 96.792 690.833 93.72C691.772 90.5627 692.625 87.7467 693.393 85.272C694.076 82.968 694.673 81.048 695.185 79.512C695.697 77.8907 696.166 76.7387 696.593 76.056C697.105 75.4587 697.873 75.0747 698.897 74.904C700.006 74.7333 701.073 74.776 702.097 75.032C703.121 75.288 703.974 75.7573 704.657 76.44C705.34 77.1227 705.553 78.0187 705.297 79.128C698.982 100.205 692.497 115.608 685.841 125.336C679.27 135.064 672.913 139.117 666.769 137.496C664.977 136.984 663.484 136.131 662.289 134.936C661.094 133.741 660.156 132.248 659.473 130.456C658.79 128.664 658.278 126.616 657.937 124.312C657.681 122.008 657.553 119.576 657.553 117.016C657.553 113.432 657.766 109.635 658.193 105.624C658.62 101.528 659.046 97.5173 659.473 93.592C659.9 90.1787 660.284 86.8933 660.625 83.736C660.966 80.5787 661.137 77.7627 661.137 75.288C661.137 72.5573 660.881 70.3813 660.369 68.76C659.942 67.1387 659.132 66.2853 657.937 66.2C656.998 66.1147 655.804 66.7973 654.353 68.248C652.902 69.6133 651.324 71.5333 649.617 74.008C647.996 76.3973 646.332 79.2133 644.625 82.456C642.918 85.6133 641.34 88.8987 639.889 92.312C638.438 95.7253 637.201 99.1387 636.177 102.552C635.153 105.88 634.47 108.995 634.129 111.896C634.129 111.981 634.086 112.024 634.001 112.024C634.001 112.024 634.001 112.067 634.001 112.152C634.172 112.835 634.342 113.475 634.513 114.072C634.769 114.584 635.068 115.096 635.409 115.608C635.409 115.693 635.452 115.736 635.537 115.736Z" fill="black"/>
</svg>
