<svg width="570" height="142" viewBox="0 0 570 142" fill="none" xmlns="http://www.w3.org/2000/svg">
<path d="M24.68 130.712C25.7893 131.907 26.344 133.315 26.344 134.936C26.344 136.728 25.576 138.221 24.04 139.416C22.504 140.611 20.4133 140.739 17.768 139.8H17.896C14.056 138.605 11.24 136.984 9.448 134.936C7.656 132.888 6.12 130.84 4.84 128.792L4.328 127.896V128.024C3.64533 127 3.09067 125.421 2.664 123.288C2.23733 121.069 1.85333 118.467 1.512 115.48C1.256 112.408 1.08533 108.995 1 105.24C0.829333 101.4 0.744 97.3467 0.744 93.08C0.744 86.8507 0.872 80.2373 1.128 73.24C1.384 66.2427 1.68267 59.3733 2.024 52.632C2.45067 45.8053 2.92 39.2773 3.432 33.048C3.944 26.8187 4.41333 21.3573 4.84 16.664C5.352 11.8853 5.82133 8.08799 6.248 5.272C6.67467 2.37066 7.016 0.877324 7.272 0.791992C7.61333 0.70666 8.296 0.70666 9.32 0.791992C10.4293 0.791992 11.7093 0.919993 13.16 1.17599C14.696 1.432 16.232 1.77333 17.768 2.2C19.3893 2.62666 20.8827 3.13866 22.248 3.73599C24.2107 3.48 26.4293 3.26666 28.904 3.09599C31.3787 2.92533 34.0667 2.84 36.968 2.84C42.1733 2.84 47.8053 3.13866 53.864 3.73599C60.008 4.33333 66.024 5.4 71.912 6.936C73.3627 7.36266 74.3867 7.87466 74.984 8.47199C75.5813 8.984 75.88 9.58133 75.88 10.264C75.88 11.032 75.368 11.7147 74.344 12.312C73.4053 12.9093 72.424 13.208 71.4 13.208C67.1333 12.7813 63.1227 12.4827 59.368 12.312C55.6133 12.1413 52.2853 12.056 49.384 12.056C43.8373 12.056 39.1867 12.2693 35.432 12.696C31.6773 13.1227 28.6053 13.6347 26.216 14.232C25.7893 18.1573 25.32 22.2533 24.808 26.52C24.3813 30.7867 23.912 35.1813 23.4 39.704L23.016 43.16C24.4667 43.3307 26.1307 43.5013 28.008 43.672C29.8853 43.7573 31.8907 43.8853 34.024 44.056C36.84 44.312 39.8267 44.568 42.984 44.824C46.1413 45.08 49.128 45.336 51.944 45.592C54.76 45.848 57.2347 46.0613 59.368 46.232C61.5867 46.3173 63.1653 46.36 64.104 46.36C66.0667 46.1893 67.6027 46.4453 68.712 47.128C69.9067 47.7253 70.504 48.4933 70.504 49.432C70.504 50.2 70.0347 50.9253 69.096 51.608C68.2427 52.2053 66.92 52.504 65.128 52.504C64.7867 52.504 63.6773 52.504 61.8 52.504C60.008 52.504 57.7893 52.5467 55.144 52.632C52.4987 52.632 49.5547 52.632 46.312 52.632C43.1547 52.632 40.04 52.6747 36.968 52.76C33.896 52.76 30.9947 52.8027 28.264 52.888C25.6187 52.9733 23.4853 53.0587 21.864 53.144C21.0107 61.1653 20.2427 69.1013 19.56 76.952C18.9627 84.7173 18.664 92.0133 18.664 98.84C18.664 105.923 19.0907 112.237 19.944 117.784C20.8827 123.245 22.4613 127.597 24.68 130.84V130.712ZM69.843 70.424C70.5257 69.9973 71.251 69.7413 72.019 69.656C72.787 69.4853 73.5123 69.4 74.195 69.4C74.451 68.2053 74.8777 66.712 75.475 64.92C76.1577 63.0427 77.2243 61.2933 78.675 59.672C80.1257 57.9653 82.131 56.5573 84.691 55.448C87.251 54.2533 90.579 53.656 94.675 53.656C98.8563 53.7413 102.312 54.6373 105.043 56.344C107.774 57.9653 109.907 60.0133 111.443 62.488C113.064 64.9627 114.131 67.6507 114.643 70.552C115.24 73.368 115.496 75.9707 115.411 78.36V79.768L115.155 84.248C118.056 83.0533 120.83 81.5173 123.475 79.64C126.206 77.6773 128.467 75.2027 130.259 72.216H130.131C130.558 71.5333 131.24 70.8933 132.179 70.296C133.118 69.6987 133.971 69.4 134.739 69.4C135.678 69.4 136.275 69.7413 136.531 70.424C136.872 71.0213 136.659 72.1733 135.891 73.88C134.696 76.44 133.246 78.744 131.539 80.792C129.918 82.7547 128.126 84.5467 126.163 86.168C124.286 87.704 122.323 89.0693 120.275 90.264C118.227 91.4587 116.179 92.44 114.131 93.208C113.534 96.1093 112.638 99.0533 111.443 102.04C110.248 105.027 108.627 107.715 106.579 110.104C104.531 112.493 101.928 114.456 98.771 115.992C95.6137 117.443 91.7737 118.125 87.251 118.04C82.4723 117.955 78.5043 117.187 75.347 115.736C72.275 114.285 69.8003 112.451 67.923 110.232C66.131 107.928 64.8937 105.325 64.211 102.424C63.443 99.5227 63.059 96.5787 63.059 93.592C63.059 90.8613 63.315 88.216 63.827 85.656C64.339 83.0107 64.9363 80.6213 65.619 78.488C66.3017 76.3547 67.027 74.6053 67.795 73.24C68.6483 71.7893 69.331 70.8507 69.843 70.424ZM99.795 87.192C101.075 87.3627 102.782 87.2347 104.915 86.808C105.171 85.1867 105.342 83.8213 105.427 82.712C105.598 81.5173 105.683 80.7493 105.683 80.408C105.768 77.6773 105.64 74.9893 105.299 72.344C105.043 69.6987 104.446 67.352 103.507 65.304C102.654 63.256 101.416 61.6773 99.795 60.568C98.259 59.3733 96.2537 58.8613 93.779 59.032C92.4137 59.1173 91.1337 59.672 89.939 60.696C88.7443 61.6347 87.7203 62.7867 86.867 64.152C86.099 65.432 85.5443 66.7973 85.203 68.248C84.8617 69.6987 84.819 70.9787 85.075 72.088L85.587 74.264C85.7577 75.4587 86.0137 76.824 86.355 78.36C86.7817 79.8107 87.4643 81.176 88.403 82.456C89.427 83.736 90.835 84.8453 92.627 85.784C94.419 86.6373 96.8083 87.1067 99.795 87.192ZM100.307 96.024C95.187 95.8533 91.0057 95.0853 87.763 93.72C84.5203 92.2693 81.9177 90.5627 79.955 88.6V90.776C79.955 92.9947 80.083 95.2133 80.339 97.432C80.6803 99.5653 81.235 101.528 82.003 103.32C82.8563 105.027 83.9657 106.435 85.331 107.544C86.6963 108.568 88.4457 109.123 90.579 109.208C92.115 109.208 93.523 108.867 94.803 108.184C96.083 107.416 97.1923 106.435 98.131 105.24C99.155 103.96 100.051 102.552 100.819 101.016C101.587 99.3947 102.27 97.7307 102.867 96.024C102.355 96.024 101.886 96.0667 101.459 96.152C101.118 96.152 100.734 96.1093 100.307 96.024ZM127.718 70.424C128.401 69.9973 129.126 69.7413 129.894 69.656C130.662 69.4853 131.387 69.4 132.07 69.4C132.326 68.2053 132.753 66.712 133.35 64.92C134.033 63.0427 135.099 61.2933 136.55 59.672C138.001 57.9653 140.006 56.5573 142.566 55.448C145.126 54.2533 148.454 53.656 152.55 53.656C156.731 53.7413 160.187 54.6373 162.918 56.344C165.649 57.9653 167.782 60.0133 169.318 62.488C170.939 64.9627 172.006 67.6507 172.518 70.552C173.115 73.368 173.371 75.9707 173.286 78.36V79.768L173.03 84.248C175.931 83.0533 178.705 81.5173 181.35 79.64C184.081 77.6773 186.342 75.2027 188.134 72.216H188.006C188.433 71.5333 189.115 70.8933 190.054 70.296C190.993 69.6987 191.846 69.4 192.614 69.4C193.553 69.4 194.15 69.7413 194.406 70.424C194.747 71.0213 194.534 72.1733 193.766 73.88C192.571 76.44 191.121 78.744 189.414 80.792C187.793 82.7547 186.001 84.5467 184.038 86.168C182.161 87.704 180.198 89.0693 178.15 90.264C176.102 91.4587 174.054 92.44 172.006 93.208C171.409 96.1093 170.513 99.0533 169.318 102.04C168.123 105.027 166.502 107.715 164.454 110.104C162.406 112.493 159.803 114.456 156.646 115.992C153.489 117.443 149.649 118.125 145.126 118.04C140.347 117.955 136.379 117.187 133.222 115.736C130.15 114.285 127.675 112.451 125.798 110.232C124.006 107.928 122.769 105.325 122.086 102.424C121.318 99.5227 120.934 96.5787 120.934 93.592C120.934 90.8613 121.19 88.216 121.702 85.656C122.214 83.0107 122.811 80.6213 123.494 78.488C124.177 76.3547 124.902 74.6053 125.67 73.24C126.523 71.7893 127.206 70.8507 127.718 70.424ZM157.67 87.192C158.95 87.3627 160.657 87.2347 162.79 86.808C163.046 85.1867 163.217 83.8213 163.302 82.712C163.473 81.5173 163.558 80.7493 163.558 80.408C163.643 77.6773 163.515 74.9893 163.174 72.344C162.918 69.6987 162.321 67.352 161.382 65.304C160.529 63.256 159.291 61.6773 157.67 60.568C156.134 59.3733 154.129 58.8613 151.654 59.032C150.289 59.1173 149.009 59.672 147.814 60.696C146.619 61.6347 145.595 62.7867 144.742 64.152C143.974 65.432 143.419 66.7973 143.078 68.248C142.737 69.6987 142.694 70.9787 142.95 72.088L143.462 74.264C143.633 75.4587 143.889 76.824 144.23 78.36C144.657 79.8107 145.339 81.176 146.278 82.456C147.302 83.736 148.71 84.8453 150.502 85.784C152.294 86.6373 154.683 87.1067 157.67 87.192ZM158.182 96.024C153.062 95.8533 148.881 95.0853 145.638 93.72C142.395 92.2693 139.793 90.5627 137.83 88.6V90.776C137.83 92.9947 137.958 95.2133 138.214 97.432C138.555 99.5653 139.11 101.528 139.878 103.32C140.731 105.027 141.841 106.435 143.206 107.544C144.571 108.568 146.321 109.123 148.454 109.208C149.99 109.208 151.398 108.867 152.678 108.184C153.958 107.416 155.067 106.435 156.006 105.24C157.03 103.96 157.926 102.552 158.694 101.016C159.462 99.3947 160.145 97.7307 160.742 96.024C160.23 96.024 159.761 96.0667 159.334 96.152C158.993 96.152 158.609 96.1093 158.182 96.024ZM196.345 38.424C197.71 38.0827 198.82 37.9973 199.673 38.168C200.526 38.2533 201.209 38.5093 201.721 38.936C202.233 39.2773 202.574 39.7893 202.745 40.472C203.001 41.0693 203.129 41.7093 203.129 42.392C203.129 44.5253 202.532 46.1893 201.337 47.384C200.91 47.8107 200.313 48.536 199.545 49.56C198.862 50.4987 198.137 51.736 197.369 53.272C196.686 54.808 196.046 56.6853 195.449 58.904C194.937 61.0373 194.681 63.512 194.681 66.328C194.681 69.7413 195.236 73.6667 196.345 78.104V77.976L204.665 99.608C208.078 96.536 211.662 93.08 215.417 89.24C219.172 85.3147 222.329 81.304 224.889 77.208C225.572 76.0987 226.297 75.3733 227.065 75.032C227.918 74.6053 228.644 74.52 229.241 74.776C229.924 74.9467 230.393 75.4587 230.649 76.312C230.905 77.1653 230.862 78.2747 230.521 79.64C229.497 81.944 228.174 84.2053 226.553 86.424C225.017 88.6427 223.31 90.8187 221.433 92.952C219.641 95.0853 217.721 97.1333 215.673 99.096C213.625 100.973 211.62 102.808 209.657 104.6L207.353 106.648C208.548 109.976 209.614 112.963 210.553 115.608C211.577 118.253 212.174 120.045 212.345 120.984C212.772 123.373 212.985 125.379 212.985 127C212.985 129.475 212.601 131.523 211.833 133.144C211.15 134.851 210.169 136.216 208.889 137.24C207.609 138.264 206.158 138.989 204.537 139.416C202.916 139.843 201.209 140.056 199.417 140.056C193.529 140.227 189.305 139.245 186.745 137.112C184.185 135.064 182.905 132.205 182.905 128.536C182.905 127.853 182.948 127.085 183.033 126.232C183.118 125.379 183.289 124.568 183.545 123.8C184.228 121.069 185.55 118.424 187.513 115.864C189.476 113.304 191.822 110.787 194.553 108.312C193.529 105.581 192.42 102.851 191.225 100.12C190.116 97.3893 189.006 94.8293 187.897 92.44C186.788 90.0507 185.764 87.9173 184.825 86.04C183.972 84.0773 183.246 82.4987 182.649 81.304C182.308 80.6213 182.009 80.024 181.753 79.512C181.497 78.9147 181.454 78.7013 181.625 78.872C180.942 76.6533 180.473 74.52 180.217 72.472C179.961 70.3387 179.833 68.2907 179.833 66.328C179.833 61.5493 180.558 57.4533 182.009 54.04C183.545 50.6267 185.252 47.8107 187.129 45.592C189.092 43.288 190.926 41.5813 192.633 40.472C194.425 39.3627 195.577 38.7227 196.089 38.552L196.345 38.424ZM199.545 128.92C199.545 125.592 198.82 121.539 197.369 116.76C196.43 118.04 195.577 119.32 194.809 120.6C194.126 121.88 193.657 123.203 193.401 124.568C193.06 125.763 192.804 126.829 192.633 127.768C192.548 128.792 192.505 129.645 192.505 130.328C192.505 132.888 193.017 134.424 194.041 134.936C195.065 135.533 195.961 135.704 196.729 135.448C198.606 134.765 199.545 132.589 199.545 128.92ZM191.887 24.344C193.508 24.7707 195.599 25.0693 198.159 25.24C200.634 25.3253 203.492 25.368 206.735 25.368C212.026 25.368 217.871 25.24 224.271 24.984L226.319 9.24C226.404 8.64266 226.49 8.17333 226.575 7.83199C226.66 7.40533 226.703 7.23466 226.703 7.31999C226.703 6.89333 226.916 6.42399 227.343 5.91199C227.77 5.4 228.282 4.93066 228.879 4.504C229.562 3.99199 230.33 3.60799 231.183 3.352C232.036 3.01066 232.89 2.84 233.743 2.84C234.938 2.84 236.004 3.13866 236.943 3.73599C237.882 4.33333 238.522 5.48533 238.863 7.19199C239.119 8.984 239.247 11.7573 239.247 15.512C239.247 16.792 239.247 18.1573 239.247 19.608C239.247 21.0587 239.204 22.5947 239.119 24.216C241.508 24.0453 243.855 23.9173 246.159 23.832C248.463 23.6613 250.767 23.4907 253.071 23.32C256.484 23.064 259.855 22.8507 263.183 22.68C266.596 22.424 269.839 22.2107 272.911 22.04C275.983 21.784 278.842 21.6133 281.487 21.528C284.218 21.4427 286.607 21.4 288.655 21.4C292.495 21.4 295.268 21.656 296.975 22.168C297.999 22.5947 298.682 23.192 299.023 23.96C299.45 24.6427 299.535 25.3253 299.279 26.008C299.108 26.6907 298.596 27.288 297.743 27.8C296.89 28.2267 295.738 28.312 294.287 28.056C293.007 27.8853 291.556 27.7573 289.935 27.672C288.314 27.5013 286.607 27.416 284.815 27.416C279.695 27.416 273.679 27.7147 266.767 28.312C259.855 28.824 252.644 29.3787 245.135 29.976L238.735 30.616L237.839 50.328C237.412 57.9227 236.986 65.6027 236.559 73.368C236.132 81.048 235.919 88.088 235.919 94.488C235.919 97.7307 235.962 100.717 236.047 103.448C236.132 106.179 236.303 108.525 236.559 110.488C236.815 112.365 237.114 113.859 237.455 114.968C237.882 115.992 238.351 116.461 238.863 116.376C240.058 116.205 241.338 114.797 242.703 112.152C244.154 109.421 245.562 106.264 246.927 102.68C248.378 99.096 249.7 95.4267 250.895 91.672C252.09 87.832 253.071 84.7173 253.839 82.328C254.01 81.7307 254.18 81.1333 254.351 80.536C254.607 79.8533 254.82 79.2133 254.991 78.616C255.247 78.0187 255.844 77.6347 256.783 77.464C257.722 77.2933 258.703 77.2933 259.727 77.464C260.751 77.6347 261.604 77.9333 262.287 78.36C262.97 78.7867 263.183 79.256 262.927 79.768C262.586 80.28 262.287 81.2187 262.031 82.584C261.69 84.2053 261.178 86.3387 260.495 88.984C259.898 91.544 259.087 94.2747 258.063 97.176C257.124 100.077 255.972 103.021 254.607 106.008C253.242 108.909 251.62 111.555 249.743 113.944C247.951 116.248 245.86 118.125 243.471 119.576C241.082 121.027 238.436 121.709 235.535 121.624C232.634 121.539 230.202 120.301 228.239 117.912C226.362 115.523 224.826 112.365 223.631 108.44C222.522 104.429 221.754 99.7787 221.327 94.488C220.815 89.1973 220.559 83.6507 220.559 77.848C220.559 70.0827 220.9 62.1467 221.583 54.04C222.18 45.9333 222.82 38.5093 223.503 31.768C216.164 32.28 209.508 32.536 203.535 32.536C200.804 32.536 198.33 32.4933 196.111 32.408C193.892 32.3227 191.972 32.0667 190.351 31.64H190.607C188.388 31.2133 186.682 30.5307 185.487 29.592C184.292 28.568 183.695 27.5867 183.695 26.648C183.695 25.624 184.378 24.856 185.743 24.344C187.023 23.832 189.071 23.832 191.887 24.344ZM288.013 73.368C288.013 73.0267 288.056 72.8133 288.141 72.728C288.226 72.3013 288.525 71.832 289.037 71.32C289.634 70.7227 290.317 70.2107 291.085 69.784C291.938 69.272 292.877 68.888 293.901 68.632C294.925 68.2907 295.949 68.12 296.973 68.12C298.338 68.12 299.533 68.4613 300.557 69.144C301.666 69.7413 302.349 70.8507 302.605 72.472C302.946 74.1787 303.117 76.4827 303.117 79.384C303.117 82.456 302.946 85.8267 302.605 89.496C302.349 93.08 302.008 96.7493 301.581 100.504C301.24 104.088 300.898 107.544 300.557 110.872C300.301 114.115 300.173 117.059 300.173 119.704C300.173 122.435 300.386 124.696 300.813 126.488C301.24 128.195 301.965 128.963 302.989 128.792C303.757 128.707 304.653 127.811 305.677 126.104C306.786 124.312 307.938 122.093 309.133 119.448C310.328 116.717 311.522 113.688 312.717 110.36C313.997 107.032 315.192 103.704 316.301 100.376C317.496 97.048 318.562 93.8907 319.501 90.904C320.525 87.9173 321.378 85.4427 322.061 83.48L323.341 79.256C323.597 78.6587 324.194 78.2747 325.133 78.104C326.072 77.9333 327.053 77.9333 328.077 78.104C329.101 78.2747 329.954 78.5733 330.637 79C331.32 79.4267 331.533 79.896 331.277 80.408V80.152L330.253 83.736C329.741 86.04 329.016 88.9413 328.077 92.44C327.138 95.8533 325.986 99.5227 324.621 103.448C323.256 107.288 321.72 111.171 320.013 115.096C318.306 119.021 316.386 122.563 314.253 125.72C312.12 128.792 309.773 131.267 307.213 133.144C304.738 135.107 302.093 136.045 299.277 135.96C297.4 135.704 295.736 134.979 294.285 133.784C292.92 132.589 291.725 131.096 290.701 129.304C289.677 127.512 288.781 125.464 288.013 123.16C287.33 120.771 286.818 118.253 286.477 115.608C285.282 117.827 283.661 119.875 281.613 121.752C279.565 123.544 277.005 124.653 273.933 125.08C268.045 125.421 263.394 124.525 259.981 122.392C256.653 120.259 254.136 117.613 252.429 114.456C250.808 111.299 249.784 107.971 249.357 104.472C248.93 100.888 248.674 97.816 248.589 95.256C248.589 93.5493 248.717 91.3733 248.973 88.728C249.144 85.9973 249.613 83.096 250.381 80.024C251.149 76.952 252.173 73.88 253.453 70.808C254.818 67.6507 256.568 64.792 258.701 62.232C260.92 59.672 263.608 57.5813 266.765 55.96C269.922 54.2533 273.634 53.3147 277.901 53.144C281.314 53.0587 284.088 53.3573 286.221 54.04C288.44 54.7227 290.189 55.576 291.469 56.6C292.749 57.624 293.688 58.6907 294.285 59.8C294.882 60.9093 295.309 61.8907 295.565 62.744L295.949 64.024V63.896C296.632 65.3467 296.504 66.456 295.565 67.224C294.712 67.992 293.56 68.376 292.109 68.376C291.256 68.376 290.36 68.2053 289.421 67.864C288.482 67.4373 287.672 66.84 286.989 66.072C286.562 65.7307 286.349 65.4747 286.349 65.304C286.349 65.1333 286.264 64.92 286.093 64.664C285.666 63.7253 284.941 62.6587 283.917 61.464C282.978 60.2693 281.4 59.7147 279.181 59.8C277.901 59.8853 276.493 60.7387 274.957 62.36C273.506 63.9813 272.098 66.2853 270.733 69.272C269.453 72.2587 268.301 75.8853 267.277 80.152C266.253 84.3333 265.57 89.112 265.229 94.488C265.229 95 265.186 95.6827 265.101 96.536C265.101 97.3893 265.101 98.0293 265.101 98.456C265.101 103.491 265.485 107.331 266.253 109.976C267.021 112.536 267.917 114.413 268.941 115.608C269.965 116.717 270.989 117.315 272.013 117.4C273.037 117.485 273.805 117.528 274.317 117.528C275.341 117.528 276.408 117.016 277.517 115.992C278.626 114.968 279.65 113.731 280.589 112.28C281.613 110.744 282.552 109.123 283.405 107.416C284.258 105.624 285.026 104.003 285.709 102.552C285.709 99.3093 285.794 96.152 285.965 93.08C286.136 89.9227 286.349 87.0213 286.605 84.376C286.861 81.7307 287.117 79.4693 287.373 77.592C287.629 75.6293 287.842 74.2213 288.013 73.368ZM359.716 59.416C361.167 58.8187 362.575 58.6053 363.94 58.776C365.305 58.9467 366.5 59.3307 367.524 59.928C368.548 60.44 369.359 61.1227 369.956 61.976C370.639 62.744 370.98 63.4693 370.98 64.152C370.98 64.4933 370.852 65.048 370.596 65.816C370.425 66.4987 370.212 67.3093 369.956 68.248C369.444 69.784 368.889 71.6187 368.292 73.752C367.78 75.8853 367.311 78.0613 366.884 80.28C366.457 82.4133 366.116 84.504 365.86 86.552C365.689 88.5147 365.732 90.136 365.988 91.416L367.012 95.128C367.183 95.896 367.353 96.664 367.524 97.432C367.78 98.1147 367.908 98.6693 367.908 99.096C367.908 100.461 367.311 101.315 366.116 101.656C365.007 101.912 362.959 101.528 359.972 100.504C357.497 99.6507 355.62 97.6453 354.34 94.488C353.145 91.2453 352.548 87.6613 352.548 83.736C352.548 82.5413 352.591 81.432 352.676 80.408C352.761 79.2987 352.889 78.1893 353.06 77.08C350.756 79.5547 348.665 82.328 346.788 85.4C344.996 88.472 343.375 91.6293 341.924 94.872C340.559 98.0293 339.321 101.187 338.212 104.344C337.188 107.416 336.335 110.232 335.652 112.792V113.304C335.652 115.523 335.567 117.443 335.396 119.064C335.225 120.6 334.969 121.667 334.628 122.264C333.945 123.8 332.964 124.952 331.684 125.72C330.404 126.488 328.996 126.872 327.46 126.872C325.924 126.872 324.516 126.445 323.236 125.592C321.956 124.739 320.975 123.373 320.292 121.496C319.951 120.557 319.652 119.021 319.396 116.888C319.14 114.755 318.884 112.28 318.628 109.464C318.457 106.563 318.329 103.448 318.244 100.12C318.159 96.792 318.116 93.4213 318.116 90.008C318.116 86.8507 318.159 83.7787 318.244 80.792C318.329 77.8053 318.457 75.1173 318.628 72.728C318.799 70.2533 319.012 68.1627 319.268 66.456C319.524 64.664 319.865 63.4267 320.292 62.744C321.06 61.2933 322.127 60.2267 323.492 59.544C324.857 58.776 326.18 58.392 327.46 58.392C328.996 58.392 330.361 59.032 331.556 60.312C332.836 61.5067 333.348 63.256 333.092 65.56C333.092 66.2427 333.092 67.1813 333.092 68.376C333.177 69.5707 333.263 70.936 333.348 72.472C333.433 73.9227 333.519 75.5013 333.604 77.208C333.689 78.8293 333.817 80.4507 333.988 82.072L334.884 94.872C335.908 91.3733 337.188 87.832 338.724 84.248C340.26 80.664 342.009 77.2933 343.972 74.136C346.02 70.8933 348.324 67.992 350.884 65.432C353.529 62.872 356.473 60.8667 359.716 59.416ZM414.138 73.368C414.138 73.0267 414.181 72.8133 414.266 72.728C414.351 72.3013 414.65 71.832 415.162 71.32C415.759 70.7227 416.442 70.2107 417.21 69.784C418.063 69.272 419.002 68.888 420.026 68.632C421.05 68.2907 422.074 68.12 423.098 68.12C424.463 68.12 425.658 68.4613 426.682 69.144C427.791 69.7413 428.474 70.8507 428.73 72.472C429.071 74.1787 429.242 76.4827 429.242 79.384C429.242 82.456 429.071 85.8267 428.73 89.496C428.474 93.08 428.133 96.7493 427.706 100.504C427.365 104.088 427.023 107.544 426.682 110.872C426.426 114.115 426.298 117.059 426.298 119.704C426.298 122.435 426.511 124.696 426.938 126.488C427.365 128.195 428.09 128.963 429.114 128.792C429.882 128.707 430.778 127.811 431.802 126.104C432.911 124.312 434.063 122.093 435.258 119.448C436.453 116.717 437.647 113.688 438.842 110.36C440.122 107.032 441.317 103.704 442.426 100.376C443.621 97.048 444.687 93.8907 445.626 90.904C446.65 87.9173 447.503 85.4427 448.186 83.48L449.466 79.256C449.722 78.6587 450.319 78.2747 451.258 78.104C452.197 77.9333 453.178 77.9333 454.202 78.104C455.226 78.2747 456.079 78.5733 456.762 79C457.445 79.4267 457.658 79.896 457.402 80.408V80.152L456.378 83.736C455.866 86.04 455.141 88.9413 454.202 92.44C453.263 95.8533 452.111 99.5227 450.746 103.448C449.381 107.288 447.845 111.171 446.138 115.096C444.431 119.021 442.511 122.563 440.378 125.72C438.245 128.792 435.898 131.267 433.338 133.144C430.863 135.107 428.218 136.045 425.402 135.96C423.525 135.704 421.861 134.979 420.41 133.784C419.045 132.589 417.85 131.096 416.826 129.304C415.802 127.512 414.906 125.464 414.138 123.16C413.455 120.771 412.943 118.253 412.602 115.608C411.407 117.827 409.786 119.875 407.738 121.752C405.69 123.544 403.13 124.653 400.058 125.08C394.17 125.421 389.519 124.525 386.106 122.392C382.778 120.259 380.261 117.613 378.554 114.456C376.933 111.299 375.909 107.971 375.482 104.472C375.055 100.888 374.799 97.816 374.714 95.256C374.714 93.5493 374.842 91.3733 375.098 88.728C375.269 85.9973 375.738 83.096 376.506 80.024C377.274 76.952 378.298 73.88 379.578 70.808C380.943 67.6507 382.693 64.792 384.826 62.232C387.045 59.672 389.733 57.5813 392.89 55.96C396.047 54.2533 399.759 53.3147 404.026 53.144C407.439 53.0587 410.213 53.3573 412.346 54.04C414.565 54.7227 416.314 55.576 417.594 56.6C418.874 57.624 419.813 58.6907 420.41 59.8C421.007 60.9093 421.434 61.8907 421.69 62.744L422.074 64.024V63.896C422.757 65.3467 422.629 66.456 421.69 67.224C420.837 67.992 419.685 68.376 418.234 68.376C417.381 68.376 416.485 68.2053 415.546 67.864C414.607 67.4373 413.797 66.84 413.114 66.072C412.687 65.7307 412.474 65.4747 412.474 65.304C412.474 65.1333 412.389 64.92 412.218 64.664C411.791 63.7253 411.066 62.6587 410.042 61.464C409.103 60.2693 407.525 59.7147 405.306 59.8C404.026 59.8853 402.618 60.7387 401.082 62.36C399.631 63.9813 398.223 66.2853 396.858 69.272C395.578 72.2587 394.426 75.8853 393.402 80.152C392.378 84.3333 391.695 89.112 391.354 94.488C391.354 95 391.311 95.6827 391.226 96.536C391.226 97.3893 391.226 98.0293 391.226 98.456C391.226 103.491 391.61 107.331 392.378 109.976C393.146 112.536 394.042 114.413 395.066 115.608C396.09 116.717 397.114 117.315 398.138 117.4C399.162 117.485 399.93 117.528 400.442 117.528C401.466 117.528 402.533 117.016 403.642 115.992C404.751 114.968 405.775 113.731 406.714 112.28C407.738 110.744 408.677 109.123 409.53 107.416C410.383 105.624 411.151 104.003 411.834 102.552C411.834 99.3093 411.919 96.152 412.09 93.08C412.261 89.9227 412.474 87.0213 412.73 84.376C412.986 81.7307 413.242 79.4693 413.498 77.592C413.754 75.6293 413.967 74.2213 414.138 73.368ZM499.537 115.736C500.22 116.504 500.561 117.229 500.561 117.912C500.561 118.509 500.262 119.064 499.665 119.576C499.153 120.003 498.428 120.344 497.489 120.6C496.55 120.771 495.526 120.856 494.417 120.856C492.71 120.856 490.961 120.515 489.169 119.832C487.377 119.064 485.884 117.784 484.689 115.992C483.75 112.92 483.153 109.805 482.897 106.648C482.641 103.405 482.428 100.291 482.257 97.304C482.172 95.1707 482.044 93.208 481.873 91.416C481.788 89.5387 481.574 87.9173 481.233 86.552C480.892 85.1867 480.38 84.1627 479.697 83.48C479.1 82.712 478.246 82.3707 477.137 82.456C476.369 82.5413 475.174 83.608 473.553 85.656C471.932 87.6187 470.182 90.136 468.305 93.208C466.513 96.1947 464.764 99.48 463.057 103.064C461.35 106.648 460.028 110.019 459.089 113.176C459.089 116.589 459.26 118.637 459.601 119.32C460.54 121.539 460.326 123.544 458.961 125.336C457.596 127.043 455.548 127.896 452.817 127.896C451.878 127.896 450.982 127.811 450.129 127.64C449.276 127.469 448.38 127.171 447.441 126.744C446.673 126.403 445.99 125.592 445.393 124.312C444.881 122.947 444.454 121.283 444.113 119.32C443.772 117.272 443.516 115.011 443.345 112.536C443.174 109.976 443.089 107.288 443.089 104.472C443.089 100.717 443.217 96.8773 443.473 92.952C443.729 88.9413 444.07 85.1867 444.497 81.688C444.924 78.1893 445.393 75.0747 445.905 72.344C446.417 69.6133 446.886 67.608 447.313 66.328C446.63 66.072 446.332 65.7733 446.417 65.432C446.588 65.0053 447.014 64.6213 447.697 64.28C448.38 63.8533 449.318 63.512 450.513 63.256C451.708 63 453.073 62.872 454.609 62.872C456.401 62.872 457.98 63.1707 459.345 63.768C460.71 64.28 461.308 65.304 461.137 66.84C461.137 67.096 461.094 67.608 461.009 68.376C460.924 69.0587 460.838 69.912 460.753 70.936C460.582 73.6667 460.369 77.1653 460.113 81.432C459.857 85.6133 459.644 89.9653 459.473 94.488C460.412 92.0987 461.478 89.7093 462.673 87.32C463.953 84.8453 465.361 82.6267 466.897 80.664C468.433 78.616 470.097 76.952 471.889 75.672C473.681 74.392 475.601 73.624 477.649 73.368C481.404 73.368 484.433 73.9227 486.737 75.032C489.126 76.1413 490.961 77.592 492.241 79.384C493.606 81.176 494.588 83.2667 495.185 85.656C495.782 87.96 496.166 90.4347 496.337 93.08C497.873 88.8133 499.75 84.376 501.969 79.768C504.188 75.16 506.577 70.936 509.137 67.096C511.697 63.256 514.385 60.0987 517.201 57.624C520.017 55.064 522.79 53.784 525.521 53.784C528.337 53.784 530.641 54.3387 532.433 55.448C534.225 56.472 535.633 57.9653 536.657 59.928C537.766 61.8053 538.534 64.0667 538.961 66.712C539.388 69.3573 539.601 72.216 539.601 75.288C539.601 79.2133 539.345 83.3093 538.833 87.576C538.406 91.8427 537.937 96.024 537.425 100.12C536.913 103.789 536.444 107.288 536.017 110.616C535.676 113.944 535.505 116.888 535.505 119.448C535.505 122.179 535.718 124.355 536.145 125.976C536.657 127.512 537.638 128.365 539.089 128.536C539.942 128.536 540.881 127.853 541.905 126.488C543.014 125.037 544.081 123.117 545.105 120.728C546.214 118.339 547.324 115.608 548.433 112.536C549.628 109.464 550.737 106.349 551.761 103.192C552.87 99.9493 553.894 96.792 554.833 93.72C555.772 90.5627 556.625 87.7467 557.393 85.272C558.076 82.968 558.673 81.048 559.185 79.512C559.697 77.8907 560.166 76.7387 560.593 76.056C561.105 75.4587 561.873 75.0747 562.897 74.904C564.006 74.7333 565.073 74.776 566.097 75.032C567.121 75.288 567.974 75.7573 568.657 76.44C569.34 77.1227 569.553 78.0187 569.297 79.128C562.982 100.205 556.497 115.608 549.841 125.336C543.27 135.064 536.913 139.117 530.769 137.496C528.977 136.984 527.484 136.131 526.289 134.936C525.094 133.741 524.156 132.248 523.473 130.456C522.79 128.664 522.278 126.616 521.937 124.312C521.681 122.008 521.553 119.576 521.553 117.016C521.553 113.432 521.766 109.635 522.193 105.624C522.62 101.528 523.046 97.5173 523.473 93.592C523.9 90.1787 524.284 86.8933 524.625 83.736C524.966 80.5787 525.137 77.7627 525.137 75.288C525.137 72.5573 524.881 70.3813 524.369 68.76C523.942 67.1387 523.132 66.2853 521.937 66.2C520.998 66.1147 519.804 66.7973 518.353 68.248C516.902 69.6133 515.324 71.5333 513.617 74.008C511.996 76.3973 510.332 79.2133 508.625 82.456C506.918 85.6133 505.34 88.8987 503.889 92.312C502.438 95.7253 501.201 99.1387 500.177 102.552C499.153 105.88 498.47 108.995 498.129 111.896C498.129 111.981 498.086 112.024 498.001 112.024C498.001 112.024 498.001 112.067 498.001 112.152C498.172 112.835 498.342 113.475 498.513 114.072C498.769 114.584 499.068 115.096 499.409 115.608C499.409 115.693 499.452 115.736 499.537 115.736Z" fill="black"/>
</svg>
